HIERARCHY
ROOT Hips
{
 OFFSET 0.000000 0.000000 0.000000
 CHANNELS 6 Xposition Yposition Zposition Yrotation Xrotation Zrotation
 JOINT Chest
 {
  OFFSET 0.000000 9.857222 0.000240
  CHANNELS 3 Yrotation Xrotation Zrotation
  JOINT Chest2
  {
   OFFSET 0.000000 10.876940 -0.000436
   CHANNELS 3 Yrotation Xrotation Zrotation
   JOINT Chest3
   {
    OFFSET 0.000000 9.827798 0.000000
    CHANNELS 3 Yrotation Xrotation Zrotation
    JOINT Chest4
    {
     OFFSET 0.000000 9.827798 0.000000
     CHANNELS 3 Yrotation Xrotation Zrotation
     JOINT Neck
     {
      OFFSET 0.000000 13.831992 0.000000
      CHANNELS 3 Yrotation Xrotation Zrotation
      JOINT Head
      {
       OFFSET 0.000000 9.147643 -0.001036
       CHANNELS 3 Yrotation Xrotation Zrotation
       End Site
       {
        OFFSET 0.000000 17.515799 -0.000541
       }
      }
     }
     JOINT RightCollar
     {
      OFFSET -3.001579 7.717577 0.000000
      CHANNELS 3 Yrotation Xrotation Zrotation
      JOINT RightShoulder
      {
       OFFSET -14.002642 0.000000 0.000000
       CHANNELS 3 Yrotation Xrotation Zrotation
       JOINT RightElbow
       {
        OFFSET -30.053852 0.000000 0.000000
        CHANNELS 3 Yrotation Xrotation Zrotation
        JOINT RightWrist
        {
         OFFSET -24.564923 0.000000 -0.000000
         CHANNELS 3 Yrotation Xrotation Zrotation
         End Site
         {
          OFFSET -18.334355 0.000000 0.000000
         }
        }
       }
      }
     }
     JOINT LeftCollar
     {
      OFFSET 3.001579 7.717577 0.000000
      CHANNELS 3 Yrotation Xrotation Zrotation
      JOINT LeftShoulder
      {
       OFFSET 14.002642 0.000000 0.000000
       CHANNELS 3 Yrotation Xrotation Zrotation
       JOINT LeftElbow
       {
        OFFSET 30.053852 0.000000 0.000000
        CHANNELS 3 Yrotation Xrotation Zrotation
        JOINT LeftWrist
        {
         OFFSET 24.564923 0.000000 -0.000000
         CHANNELS 3 Yrotation Xrotation Zrotation
         End Site
         {
          OFFSET 18.334355 0.000000 0.000000
         }
        }
       }
      }
     }
    }
   }
  }
 }
 JOINT RightHip
 {
  OFFSET -8.003235 -0.001175 -0.000120
  CHANNELS 3 Yrotation Xrotation Zrotation
  JOINT RightKnee
  {
   OFFSET 0.000000 -41.759727 0.000113
   CHANNELS 3 Yrotation Xrotation Zrotation
   JOINT RightAnkle
   {
    OFFSET 0.000000 -40.728748 0.000159
    CHANNELS 3 Yrotation Xrotation Zrotation
    JOINT RightToe
    {
     OFFSET 0.000000 -6.515296 14.732841
     CHANNELS 3 Yrotation Xrotation Zrotation
     End Site
     {
      OFFSET 0.000000 -1.502839 6.412115
     }
    }
   }
  }
 }
 JOINT LeftHip
 {
  OFFSET 8.003235 -0.001175 -0.000120
  CHANNELS 3 Yrotation Xrotation Zrotation
  JOINT LeftKnee
  {
   OFFSET 0.000000 -41.759727 0.000113
   CHANNELS 3 Yrotation Xrotation Zrotation
   JOINT LeftAnkle
   {
    OFFSET 0.000000 -40.728748 0.000159
    CHANNELS 3 Yrotation Xrotation Zrotation
    JOINT LeftToe
    {
     OFFSET 0.000000 -6.515296 14.732841
     CHANNELS 3 Yrotation Xrotation Zrotation
     End Site
     {
      OFFSET 0.000000 -1.502839 6.412115
     }
    }
   }
  }
 }
}
MOTION
Frames: 16
Frame Time: 0.016667
16.465477 95.516467 11.849921 -36.864821 -6.431456 4.102822 0.244959 9.285121 -2.576555 2.232413 2.657956 0.422885 2.232413 2.657956 0.422885 1.672170 1.995044 0.307397 -4.612951 17.812030 2.922575 -9.474086 -2.718848 6.923492 0.200041 4.354699 6.841242 9.230787 9.218545 52.676750 75.125220 -55.967390 -61.007916 -1.936145 -2.986658 -7.873321 -9.197319 6.525884 -8.022929 9.202817 6.134958 -58.193408 -63.237812 -16.995876 18.459424 17.497000 -6.742800 -4.786711 -5.782036 2.157472 -3.898654 2.352742 13.490488 -5.606578 15.149352 12.501530 -0.242933 -6.060597 -20.940298 1.930270 3.275029 6.369568 -11.059011 8.988749 11.546353 0.171126 -6.513199 6.072500 -11.723553 -1.189256 -10.926330 9.182103
16.742750 96.591843 11.338544 -38.070164 -4.472713 3.126437 1.226111 9.363301 -1.316887 2.055110 3.183447 0.421126 2.055110 3.183447 0.421126 1.538741 2.389034 0.305053 -4.260226 16.429722 2.853717 -8.919701 -5.319675 6.806562 0.540734 2.172431 5.008181 3.798265 5.528601 47.736500 67.446706 -52.549442 -51.690926 -1.898747 -2.929906 -8.365766 -7.898921 4.912450 -6.628368 14.230645 1.714912 -54.497297 -63.253497 -15.938755 16.914989 16.742546 -7.075899 -4.336986 -5.500117 1.012322 -4.436367 1.372470 9.660444 -4.246598 17.160566 17.686079 0.748439 -4.838857 -23.256329 2.153420 7.967022 4.545929 -8.238236 9.743933 11.637439 1.324892 -11.369312 4.328532 -16.015795 -1.221436 -8.764505 8.966751
16.737777 97.456514 10.962374 -39.042147 -2.952210 2.533578 2.261763 10.273317 -0.927411 1.963829 3.804186 0.206426 1.963829 3.804186 0.206426 1.471044 2.853838 0.142524 -3.933638 14.934074 3.233921 -8.587069 -8.081583 7.539956 0.115734 0.409185 4.417383 0.464038 0.995239 42.925049 63.999613 -48.991224 -47.045090 -1.697259 -2.674415 -9.261283 -6.427451 2.564001 -4.017827 16.785274 -1.292409 -50.767437 -63.649476 -15.066556 17.066044 16.192746 -7.760794 -3.528654 -5.072481 -0.436079 -5.482953 2.771006 8.260441 -3.513077 15.448958 19.715982 0.453737 -2.715027 -22.824566 3.705112 14.432634 1.523121 -2.785308 1.986990 14.795114 -1.246210 -9.950119 0.222303 -18.543009 -0.721511 -5.599628 7.078696
16.123695 98.032754 10.751639 -40.744949 -4.396513 0.527191 4.178087 13.312882 1.208045 1.770451 4.364234 0.037501 1.770451 4.364234 0.037501 1.326927 3.273316 0.015447 -3.542165 13.848655 3.477240 -8.052728 -10.105419 7.955828 -0.265203 -0.218937 3.840324 -0.761042 -3.296040 37.841880 61.971939 -45.831535 -44.865002 -1.419682 -2.327181 -10.392129 -3.815720 0.589799 -2.176052 16.798777 -2.054734 -46.203541 -64.931825 -14.805150 19.452860 15.836636 -8.716930 -2.656684 -1.316452 0.392821 -4.470586 4.655071 10.102976 -3.703093 11.907660 19.020928 0.823515 -1.831182 -20.268596 4.999072 17.750187 -1.007452 6.491071 -7.260754 20.298892 -7.617275 -6.594586 -3.113809 -20.860598 1.913026 -5.839106 5.434752
16.379492 98.260476 10.402377 -40.888378 -2.632928 1.509850 4.142077 13.986167 0.145809 1.646534 5.318586 -0.052690 1.646534 5.318586 -0.052690 1.234472 3.988832 -0.053855 -3.291342 12.221412 3.679163 -7.830152 -13.122145 8.406914 -0.992891 -1.958019 3.287568 -0.741953 -7.920914 31.933750 59.156817 -43.001837 -43.037855 -1.153521 -1.853080 -11.132561 -1.718611 -3.204182 -1.164965 16.231687 -1.806400 -40.801482 -66.834237 -15.719254 22.946963 15.546531 -8.953519 -1.645913 1.891715 -2.154070 -6.195064 5.404055 12.564804 -4.140943 7.234300 15.782814 0.276217 -0.196701 -14.959545 5.329714 13.111419 -2.647891 6.353510 -6.564658 21.627424 -9.213566 2.593041 -4.751679 -19.218534 -1.630004 -3.110867 1.362458
16.953812 98.118373 10.023410 -40.161004 0.122447 2.201439 4.181922 14.495183 -0.864995 1.856881 6.366387 -0.222401 1.856881 6.366387 -0.222401 1.393549 4.774169 -0.186045 -3.526219 10.320843 4.217991 -8.742276 -16.550084 9.767814 -2.956493 -6.130276 4.183822 -0.061368 -10.650296 24.835864 55.481198 -40.600129 -41.017442 -1.015772 -1.536310 -11.576818 -2.258292 -8.619436 0.254496 16.829419 -1.500993 -34.667828 -68.735739 -16.800860 26.652721 15.608802 -9.479698 -1.220693 3.176454 -5.370138 -7.705802 4.814584 13.820289 -4.975266 5.399588 12.687370 -0.518691 1.168270 -10.018201 5.988136 7.231832 -5.244091 2.889378 0.464577 23.103284 -4.435282 5.309237 -5.753672 -18.582451 -3.040525 -1.396814 -1.516718
17.363626 97.562570 9.708501 -40.264743 1.385226 0.856358 4.965459 14.199362 0.424438 1.860760 6.587249 -0.310990 1.860760 6.587249 -0.310990 1.397394 4.939547 -0.253123 -3.522326 10.090120 4.372619 -8.835343 -16.958229 10.095486 -3.440470 -7.963724 4.651628 0.624332 -10.574662 17.014352 52.075214 -38.893189 -39.649454 -0.865639 -1.216980 -11.615636 -3.339990 -12.230563 0.678338 17.464432 -2.330633 -27.249617 -68.107243 -18.306530 29.342881 16.037702 -9.316531 -1.281664 3.369535 -7.008678 -7.017682 4.373153 13.722168 -5.903479 6.320187 10.509594 -1.320714 1.621405 -6.010256 6.603338 6.633919 -7.588600 2.409631 5.661494 25.715659 1.456465 0.971143 -6.469935 -19.659327 -0.752900 -1.842912 -2.340665
17.796768 96.657732 9.541247 -40.635179 1.591706 0.285675 5.669500 13.971629 0.835719 1.846277 6.795365 -0.427499 1.846277 6.795365 -0.427499 1.387853 5.095293 -0.340865 -3.439349 10.304470 4.507986 -8.706303 -16.555977 10.290650 -3.254552 -10.170520 5.379721 0.572813 -8.229999 9.321207 50.371565 -37.653224 -39.934170 -0.599583 -0.924521 -11.636968 -5.438542 -15.165621 1.451088 14.081598 -6.702908 -19.367703 -62.138193 -18.934815 30.564118 16.681416 -8.756510 -1.105560 3.159228 -7.465646 -6.821425 4.655064 13.010664 -7.023907 7.579219 8.583048 -2.083964 1.879194 -2.545673 7.204702 7.746431 -8.580982 4.034517 6.761481 27.794234 1.745016 -0.304798 -6.051214 -18.416401 -0.526703 -2.318876 -3.412368
18.005627 95.472324 9.521401 -40.325701 0.058813 0.373776 5.586217 14.782517 0.638741 1.770063 7.177972 -0.566123 1.770063 7.177972 -0.566123 1.332486 5.381901 -0.444926 -3.285460 10.637596 4.649522 -8.427160 -15.942457 10.450656 -2.828856 -12.228508 6.096963 0.285440 -4.574414 2.599803 51.147236 -37.105921 -43.256288 -0.213279 -0.441053 -11.640286 -6.780642 -15.776650 2.551345 6.901051 -12.765628 -10.127146 -53.846793 -19.022714 30.735702 17.262777 -8.479822 -0.794074 1.965259 -6.037841 -7.170222 6.592212 12.577935 -7.950318 7.949190 7.023176 -2.565438 1.592792 -0.167788 7.512707 7.356996 -7.317837 6.962540 5.796664 29.096892 -1.066325 -0.355739 -4.287739 -17.421813 -0.490990 -3.427249 -3.712356
18.226188 94.032624 9.591425 -39.281733 -1.454627 1.368457 4.334994 15.506781 -0.689979 1.668980 7.481673 -0.773618 1.668980 7.481673 -0.773618 1.259471 5.609206 -0.599926 -3.023591 11.108809 4.848770 -7.948259 -15.080326 10.657997 -2.978924 -13.676780 6.694971 0.781816 -0.270187 -3.020101 53.113873 -36.740466 -48.522227 0.235711 0.136484 -11.659112 -7.203074 -13.921741 3.717787 -5.258371 -19.976832 4.137718 -42.151818 -19.322288 27.815136 17.923059 -8.203069 -0.532569 0.678657 -4.558998 -8.465391 9.178952 13.054242 -8.629812 6.670911 5.583182 -3.595622 1.631912 1.148020 7.964977 7.092375 -5.087182 7.730024 1.895062 27.917385 -3.749740 1.252035 -1.854255 -16.999443 -0.486349 -4.002881 -3.559008
18.318433 92.300306 9.629019 -39.166886 -2.846048 1.624552 4.164128 16.465714 -1.518474 1.564438 7.602226 -1.063986 1.564438 7.602226 -1.063986 1.184909 5.699016 -0.816383 -2.681686 11.607370 5.210271 -7.383411 -14.158753 11.140996 -4.503095 -14.554332 7.561246 2.731032 2.922700 -7.887378 54.047664 -35.352858 -52.613895 0.661715 0.732140 -11.540561 -7.270980 -10.217899 5.412841 -20.287356 -27.954221 25.945587 -29.721405 -17.854291 18.480798 18.698302 -7.986678 -0.387905 2.289157 -3.354831 -8.697146 10.164482 14.446979 -9.542881 5.149446 5.127062 -4.548265 1.861675 0.272314 12.494279 8.040949 -3.812237 8.043487 -1.679387 28.513982 -4.226602 2.094520 -0.409610 -17.265276 -0.755133 -6.907774 -1.233311
18.515508 90.262411 9.518352 -39.094140 -3.030758 1.605187 4.199355 16.189286 -2.104324 1.431554 7.447308 -1.314074 1.431554 7.447308 -1.314074 1.088248 5.582476 -1.001701 -2.353034 12.340610 5.532386 -6.797771 -12.807006 11.529253 -6.800732 -13.858845 8.143994 6.119587 2.252359 -12.322259 52.521798 -31.537318 -52.360707 1.032292 1.243522 -11.168090 -7.575036 -8.011890 7.129263 -33.270603 -31.183659 53.585079 -21.506143 -16.547099 2.815725 19.611121 -7.686807 -0.443905 5.467903 -3.538078 -8.490075 8.844182 15.904745 -10.554412 4.361642 5.616422 -5.335066 0.992381 -4.275338 16.203442 8.046470 -3.653415 8.063162 -3.513744 29.457408 -4.021304 1.958423 -0.007388 -17.692468 -1.290802 -11.473366 1.007490
18.690280 87.987247 9.449617 -38.773333 -3.589369 1.535454 3.838451 15.730575 -2.457639 1.299243 7.090395 -1.475483 1.299243 7.090395 -1.475483 0.990387 5.314730 -1.120343 -2.040636 13.419119 5.681546 -6.134261 -10.834420 11.564655 -9.405827 -12.232837 7.744467 9.803367 -0.908839 -16.943110 50.855160 -26.317574 -48.382356 1.336526 1.387200 -10.755490 -8.660597 -11.010592 8.507828 -42.504564 -31.163545 77.814834 -21.044859 -13.724893 -15.519534 20.498190 -7.777419 -0.730412 7.778140 -3.037743 -8.139086 7.098347 16.365257 -11.482305 4.715326 6.521154 -5.965191 0.109586 -8.089536 18.970361 6.924750 -3.006085 8.072334 -5.228231 30.669902 -4.561385 1.915133 -0.210095 -18.139369 -1.948642 -15.206153 3.552699
18.819361 86.842178 9.061565 -39.574201 -3.104527 0.120297 4.742163 13.901630 -1.097403 1.187933 6.777722 -1.490354 1.187933 6.777722 -1.490354 0.906511 5.080458 -1.129692 -1.823228 14.457661 5.532866 -5.550022 -8.954218 11.095263 -11.040811 -13.462945 6.503677 12.184968 -2.150272 -21.364750 50.747465 -20.852618 -43.778980 1.728451 1.377532 -10.314414 -9.457860 -19.041103 9.371035 -39.361220 -19.628737 74.055751 -23.033116 -16.038501 -12.931223 21.055602 -8.046149 -0.883436 10.015081 -3.690275 -6.871107 5.390200 16.135927 -11.845600 5.575180 4.008658 -6.453702 -0.096013 -7.653833 20.822269 6.804250 -3.425647 8.957944 -7.828101 32.045361 -5.494436 3.410785 -1.834322 -18.262740 -2.824467 -17.177323 5.647611
18.852505 86.213384 8.246925 -40.411324 -2.233518 -1.297984 5.552297 12.302349 0.409156 1.111073 6.773171 -1.416538 1.111073 6.773171 -1.416538 0.848101 5.077359 -1.073531 -1.715504 14.805177 5.260983 -5.209683 -8.349448 10.513065 -10.677903 -18.163974 5.632282 12.459223 -0.788348 -25.693841 51.834925 -15.577847 -40.444170 2.149290 1.387532 -9.714067 -9.039439 -27.882049 10.425578 -37.605686 -9.283930 68.439009 -26.209301 -16.807490 -7.906066 20.867937 -8.909430 -0.920962 11.452526 -5.192939 -6.102513 4.794269 16.950094 -11.361195 5.328228 -1.080070 -5.813527 0.491125 -4.821689 20.957520 6.207087 -4.224903 9.173958 -10.971746 33.520738 -6.886586 6.642529 -5.589234 -16.510700 -3.140279 -16.693458 5.721711
19.464681 86.109899 8.327954 -39.966386 -2.143917 0.335407 4.785082 11.687032 -1.110868 1.127702 6.707535 -1.318021 1.127702 6.707535 -1.318021 0.859337 5.028271 -0.999815 -1.803560 14.966441 5.082461 -5.291472 -8.058480 10.197884 -8.747816 -21.490659 4.758643 9.037089 2.549758 -30.722752 54.647669 -12.417562 -40.108983 2.627987 0.737297 -9.739786 -9.358637 -30.580244 12.132831 -39.424557 -4.646118 68.328163 -27.101740 -12.153377 -5.913203 19.940674 -12.555981 -1.741439 11.334417 -5.466539 -7.830489 4.721719 18.535356 -11.824299 3.769616 -3.992878 -2.820658 1.309643 -4.217615 19.275650 4.508241 -4.197110 5.213395 -14.085792 35.484582 -7.805291 10.833318 -12.869301 -14.376081 -2.703929 -12.539180 5.002885
